
      <svg data-logo="logo" xmlns="http://www.w3.org/2000/svg" viewBox="0 0 232 43">
        <g id="logogram" transform="translate(0, 1) rotate(0) "><path d="M38.9459 32.9132C36.0515 38.1219 30.1583 40.6 24.1994 40.6H0.290833C25.1797 37.4889 42.5131 25.0445 44.7353 7.71112C46.9575 25.0445 64.2908 37.4889 89.1797 40.6H65.2712C59.3122 40.6 53.419 38.1219 50.5246 32.9132C47.3918 27.2756 45.3959 20.8964 44.7353 13.9333C44.0747 20.8964 42.0787 27.2756 38.9459 32.9132Z" fill="#3B82F6"/><path d="M25.2731 31.0723C23.8769 31.8583 22.4083 32.5966 20.8705 33.2844C19.997 30.2669 19.6756 27.1012 19.932 23.9476C20.2711 19.7756 21.6109 15.7534 23.8328 12.2376C26.0547 8.72178 29.09 5.82062 32.6699 3.79119C36.2498 1.76177 40.2639 0.666681 44.3564 0.602957C48.4489 0.539224 52.4937 1.50881 56.1323 3.42584C59.771 5.34285 62.8913 8.1481 65.2167 11.5932C67.5422 15.0382 69.0011 19.0167 69.4643 23.1762C69.8431 26.5784 69.5462 30.0159 68.6 33.2844C67.0622 32.5966 65.5936 31.8582 64.1974 31.0722C64.786 28.6827 64.951 26.1968 64.6768 23.7339C64.3033 20.3797 63.1267 17.1714 61.2515 14.3933C59.3762 11.6153 56.8601 9.35307 53.9258 7.80721C50.9916 6.26131 47.7299 5.47945 44.4297 5.53083C41.1295 5.58222 37.8926 6.46529 35.0058 8.10178C32.119 9.73832 29.6713 12.0778 27.8795 14.913C26.0878 17.7482 25.0073 20.9916 24.7339 24.3559C24.5501 26.6173 24.7346 28.8864 25.2731 31.0723Z" fill="#FFFFFF"/></g>
        <g id="logotype" transform="translate(96, 9)"><path fill="#3077E3" d="M9.01 25L6.11 25L15.94 1.83L19.23 1.83L29.07 25L26.16 25L23.33 18.28L11.85 18.28L9.01 25ZM17.59 4.56L12.86 15.86L22.31 15.86L17.59 4.56ZM34.07 25L31.45 25L31.45 0.50L34.07 0.50L34.07 25ZM46.14 25.28L46.14 25.28Q43.52 25.28 41.59 24.07Q39.67 22.86 38.60 20.80Q37.53 18.73 37.53 16.25L37.53 16.25Q37.53 13.73 38.60 11.68Q39.67 9.63 41.59 8.43Q43.52 7.22 46.14 7.22L46.14 7.22Q49.26 7.22 51.45 8.83Q53.64 10.44 54.41 12.99L54.41 12.99L51.57 12.99Q50.98 11.49 49.66 10.54Q48.35 9.60 46.49 9.60L46.49 9.60Q44.57 9.60 43.13 10.51Q41.70 11.42 40.93 12.92Q40.16 14.43 40.16 16.25L40.16 16.25Q40.16 18.04 40.93 19.56Q41.70 21.08 43.13 21.99Q44.57 22.90 46.49 22.90L46.49 22.90Q48.35 22.90 49.66 21.95Q50.98 21.01 51.57 19.50L51.57 19.50L54.41 19.50Q53.64 22.06 51.45 23.67Q49.26 25.28 46.14 25.28ZM65.05 25.28L65.05 25.28Q62.49 25.28 60.58 24.07Q58.68 22.86 57.63 20.80Q56.58 18.73 56.58 16.25L56.58 16.25Q56.58 13.73 57.63 11.68Q58.68 9.63 60.58 8.43Q62.49 7.22 65.05 7.22L65.05 7.22Q67.22 7.22 68.77 8.06Q70.33 8.90 71.31 10.33L71.31 10.33L71.31 7.50L73.94 7.50L73.94 25L71.31 25L71.31 22.20Q70.33 23.60 68.77 24.44Q67.22 25.28 65.05 25.28ZM65.40 22.90L65.40 22.90Q67.36 22.90 68.70 21.99Q70.05 21.08 70.75 19.56Q71.45 18.04 71.45 16.25L71.45 16.25Q71.45 14.43 70.75 12.92Q70.05 11.42 68.70 10.51Q67.36 9.60 65.40 9.60L65.40 9.60Q63.47 9.60 62.07 10.51Q60.67 11.42 59.94 12.92Q59.20 14.43 59.20 16.25L59.20 16.25Q59.20 18.04 59.94 19.56Q60.67 21.08 62.07 21.99Q63.47 22.90 65.40 22.90ZM84.86 25.28L84.86 25.28Q82.44 25.28 80.78 24.48Q79.12 23.67 78.24 22.36Q77.37 21.04 77.26 19.50L77.26 19.50L79.99 19.50Q80.10 20.38 80.60 21.20Q81.11 22.02 82.16 22.53Q83.21 23.04 84.89 23.04L84.89 23.04Q85.42 23.04 86.19 22.93Q86.96 22.83 87.67 22.55Q88.39 22.27 88.88 21.71Q89.37 21.15 89.37 20.27L89.37 20.27Q89.37 19.19 88.53 18.59Q87.69 18 86.36 17.67Q85.03 17.34 83.54 17.02Q82.06 16.70 80.73 16.20Q79.40 15.69 78.56 14.76Q77.72 13.83 77.72 12.22L77.72 12.22Q77.72 9.84 79.45 8.53Q81.18 7.22 84.58 7.22L84.58 7.22Q86.89 7.22 88.34 7.94Q89.79 8.65 90.54 9.77Q91.30 10.89 91.44 12.19L91.44 12.19L88.78 12.19Q88.64 11.07 87.67 10.26Q86.71 9.46 84.51 9.46L84.51 9.46Q80.34 9.46 80.34 11.98L80.34 11.98Q80.34 13.03 81.18 13.59Q82.02 14.15 83.35 14.48Q84.68 14.81 86.17 15.11Q87.66 15.41 88.99 15.93Q90.32 16.46 91.16 17.42Q92.00 18.38 92.00 20.03L92.00 20.03Q92.00 22.59 90.05 23.93Q88.11 25.28 84.86 25.28ZM99.87 25L97.25 25L97.25 9.81L93.68 9.81L93.68 7.50L97.25 7.50L97.25 1.23L99.87 1.23L99.87 7.50L103.90 7.50L103.90 9.81L99.87 9.81L99.87 25ZM114.19 25.28L114.19 25.28Q111.53 25.28 109.53 24.07Q107.54 22.86 106.43 20.80Q105.33 18.73 105.33 16.25L105.33 16.25Q105.33 13.73 106.38 11.68Q107.43 9.63 109.39 8.43Q111.35 7.22 114.01 7.22L114.01 7.22Q116.71 7.22 118.65 8.43Q120.59 9.63 121.64 11.68Q122.69 13.73 122.69 16.25L122.69 16.25L122.69 17.30L108.03 17.30Q108.24 18.84 109.02 20.12Q109.81 21.39 111.14 22.15Q112.47 22.90 114.22 22.90L114.22 22.90Q116.08 22.90 117.34 22.08Q118.60 21.25 119.30 19.96L119.30 19.96L122.17 19.96Q121.26 22.30 119.28 23.79Q117.30 25.28 114.19 25.28ZM108.06 14.85L108.06 14.85L119.96 14.85Q119.61 12.61 118.07 11.10Q116.53 9.60 114.01 9.60L114.01 9.60Q111.49 9.60 109.97 11.10Q108.45 12.61 108.06 14.85ZM128.54 25L125.91 25L125.91 7.50L128.54 7.50L128.54 11.80Q128.68 11.35 129.08 10.60Q129.48 9.84 130.25 9.07Q131.02 8.30 132.19 7.76Q133.37 7.22 134.98 7.22L134.98 7.22L135.15 7.22L135.15 9.84L134.84 9.84Q132.88 9.84 131.46 10.91Q130.04 11.98 129.29 13.68Q128.54 15.37 128.54 17.30L128.54 17.30L128.54 25Z"/></g>
        
      </svg>
    